<svg id="_ÎÓÈ_1" data-name="—ÎÓÈ_1" xmlns="http://www.w3.org/2000/svg" xmlns:xlink="http://www.w3.org/1999/xlink" viewBox="0 0 314.12 198.42"><defs><style>.cls-1{fill:#fff;}.cls-2{opacity:0.5;}.cls-3{fill:#7bdaff;}.cls-4{fill:url(#_ÂÁ_Ï_ÌÌ_È_ËÂÌÚ_17);}.cls-5{fill:url(#_ÂÁ_Ï_ÌÌ_È_ËÂÌÚ_5);}.cls-6{fill:url(#_ÂÁ_Ï_ÌÌ_È_ËÂÌÚ_5-2);}.cls-7{fill:url(#_ÂÁ_Ï_ÌÌ_È_ËÂÌÚ_24);}.cls-8{fill:url(#_ÂÁ_Ï_ÌÌ_È_ËÂÌÚ_17-2);}.cls-9{fill:url(#_ÂÁ_Ï_ÌÌ_È_ËÂÌÚ_17-3);}.cls-10{fill:url(#_ÂÁ_Ï_ÌÌ_È_ËÂÌÚ_5-3);}.cls-11{fill:url(#_ÂÁ_Ï_ÌÌ_È_ËÂÌÚ_5-4);}.cls-12{fill:url(#_ÂÁ_Ï_ÌÌ_È_ËÂÌÚ_24-2);}.cls-13{fill:url(#_ÂÁ_Ï_ÌÌ_È_ËÂÌÚ_17-4);}</style><linearGradient id="_ÂÁ_Ï_ÌÌ_È_ËÂÌÚ_17" x1="-7942.62" y1="1808.91" x2="-7866.96" y2="1808.91" gradientTransform="matrix(0.78, 0.45, -0.2, 1.04, 6821.56, 1751.45)" gradientUnits="userSpaceOnUse"><stop offset="0" stop-color="#7bdaff"/><stop offset="1" stop-color="#59bdef"/></linearGradient><linearGradient id="_ÂÁ_Ï_ÌÌ_È_ËÂÌÚ_5" x1="-7849.32" y1="1849.1" x2="-7890.51" y2="1804.43" gradientTransform="matrix(0.78, 0.45, -0.2, 1.04, 6821.56, 1751.45)" gradientUnits="userSpaceOnUse"><stop offset="0.77" stop-color="#59bdef"/><stop offset="0.85" stop-color="#55b8eb"/><stop offset="0.93" stop-color="#49abe1"/><stop offset="1" stop-color="#3a9bd5"/></linearGradient><linearGradient id="_ÂÁ_Ï_ÌÌ_È_ËÂÌÚ_5-2" x1="119.12" y1="1849.17" x2="77.94" y2="1804.5" gradientTransform="matrix(-0.78, -0.45, -0.2, 1.04, 697.6, -1785.86)" xlink:href="#_ÂÁ_Ï_ÌÌ_È_ËÂÌÚ_5"/><linearGradient id="_ÂÁ_Ï_ÌÌ_È_ËÂÌÚ_24" x1="-7904.79" y1="1873.55" x2="-7904.79" y2="1809.77" gradientTransform="matrix(0.78, 0.45, -0.2, 1.04, 6821.56, 1751.45)" gradientUnits="userSpaceOnUse"><stop offset="0.77" stop-color="#3a9bd5"/><stop offset="0.84" stop-color="#3896d2"/><stop offset="0.92" stop-color="#3189c9"/><stop offset="1" stop-color="#2573ba"/></linearGradient><linearGradient id="_ÂÁ_Ï_ÌÌ_È_ËÂÌÚ_17-2" x1="-7930.07" y1="1778.15" x2="-7865" y2="1812.64" xlink:href="#_ÂÁ_Ï_ÌÌ_È_ËÂÌÚ_17"/><linearGradient id="_ÂÁ_Ï_ÌÌ_È_ËÂÌÚ_17-3" x1="-3003.79" y1="-314.18" x2="-2812.66" y2="-314.18" gradientTransform="matrix(-0.78, 0.45, 0.2, 1.04, -2036.17, 1751.45)" xlink:href="#_ÂÁ_Ï_ÌÌ_È_ËÂÌÚ_17"/><linearGradient id="_ÂÁ_Ï_ÌÌ_È_ËÂÌÚ_5-3" x1="-2768.08" y1="-212.66" x2="-2872.14" y2="-325.5" gradientTransform="matrix(-0.78, 0.45, 0.2, 1.04, -2036.17, 1751.45)" xlink:href="#_ÂÁ_Ï_ÌÌ_È_ËÂÌÚ_5"/><linearGradient id="_ÂÁ_Ï_ÌÌ_È_ËÂÌÚ_5-4" x1="-4792.68" y1="-212.69" x2="-4896.73" y2="-325.52" gradientTransform="matrix(0.78, -0.45, 0.2, 1.04, 4087.79, -1785.86)" xlink:href="#_ÂÁ_Ï_ÌÌ_È_ËÂÌÚ_5"/><linearGradient id="_ÂÁ_Ï_ÌÌ_È_ËÂÌÚ_24-2" x1="-2908.22" y1="-150.89" x2="-2908.22" y2="-312.01" gradientTransform="matrix(-0.78, 0.45, 0.2, 1.04, -2036.17, 1751.45)" xlink:href="#_ÂÁ_Ï_ÌÌ_È_ËÂÌÚ_24"/><linearGradient id="_ÂÁ_Ï_ÌÌ_È_ËÂÌÚ_17-4" x1="-2972.07" y1="-391.88" x2="-2807.69" y2="-304.76" gradientTransform="matrix(-0.78, 0.45, 0.2, 1.04, -2036.17, 1751.45)" xlink:href="#_ÂÁ_Ï_ÌÌ_È_ËÂÌÚ_17"/></defs><title>astronauta</title><path class="cls-1" d="M119.3,132.08l3.07-1.77,3.06,1.77-3.07,1.77Z" transform="translate(-14.96 -10.56)"/><path class="cls-1" d="M125.83,135.85l3.07-1.77,3.07,1.77-3.08,1.77Z" transform="translate(-14.96 -10.56)"/><path class="cls-1" d="M132.37,139.63l3.07-1.78,3.06,1.77-3.07,1.77Z" transform="translate(-14.96 -10.56)"/><path class="cls-1" d="M138.9,143.4l3.07-1.78,3.06,1.77L142,145.17Z" transform="translate(-14.96 -10.56)"/><path class="cls-1" d="M145.43,147.17l3.08-1.77,3.06,1.77-3.07,1.77Z" transform="translate(-14.96 -10.56)"/><g class="cls-2"><polygon class="cls-3" points="69.63 96.85 59.46 91.14 54.42 92.56 64.59 98.27 69.63 96.85"/><polygon class="cls-3" points="67.2 65.11 68.67 70.36 78.84 76.08 77.37 70.82 67.2 65.11"/><polygon class="cls-3" points="13.69 69.69 23.86 75.4 22.45 70.36 12.28 64.65 13.69 69.69"/><polygon class="cls-3" points="70.5 76.86 73.41 87.22 65.96 89.32 76.13 95.03 83.58 92.94 80.67 82.57 70.5 76.86"/><polygon class="cls-3" points="20.62 63.86 18.53 56.41 52.4 46.9 42.22 41.19 8.36 50.7 10.45 58.15 20.62 63.86"/><polygon class="cls-3" points="44.55 95.33 30.57 99.26 26.64 85.27 16.46 79.56 24.85 109.43 54.72 101.04 44.55 95.33"/><polygon class="cls-3" points="48.72 39.37 58.89 45.08 62.07 46.86 72.24 52.57 67.09 34.21 48.72 39.37"/><polygon class="cls-3" points="63.9 53.36 65.37 58.61 75.55 64.33 74.07 59.07 63.9 53.36"/></g><path class="cls-1" d="M125.14,108H105.46l7.08-7.07h19.68Zm-16-1.5h15.43l4.07-4.07H113.16Z" transform="translate(-14.96 -10.56)"/><path class="cls-1" d="M129,68.34H109.32L102,61h19.68Zm-19.06-1.5h15.43l-4.3-4.3H105.64Z" transform="translate(-14.96 -10.56)"/><path class="cls-1" d="M56.38,108H36.69l-7.07-7.07H49.3Zm-19.06-1.5H52.74l-4.06-4.07H33.25Z" transform="translate(-14.96 -10.56)"/><path class="cls-1" d="M137.89,95.2H118.21l9-9L115,74h19.68l12.21,12.2Zm-16-1.5h15.43l7.48-7.48-10.7-10.7H118.63l10.69,10.7Z" transform="translate(-14.96 -10.56)"/><path class="cls-1" d="M43.63,95.2H23.94l-9-9L53.13,48.05H72.81L34.64,86.22ZM24.57,93.7H40l-7.48-7.48L69.18,49.55H53.76L17.09,86.22Z" transform="translate(-14.96 -10.56)"/><path class="cls-1" d="M80.92,152.18,46.1,117.36H65.78L80.92,132.5l15.14-15.14h19.68ZM49.73,118.86l31.19,31.19,31.19-31.19H96.68L80.92,134.62,65.16,118.86Z" transform="translate(-14.96 -10.56)"/><path class="cls-1" d="M103,42.37H58.81L80.92,20.26Zm-40.59-1.5h37L80.92,22.39Z" transform="translate(-14.96 -10.56)"/><path class="cls-1" d="M116,55.36H96.33L89,48.05H108.7ZM97,53.85h15.42l-4.3-4.3H92.66Z" transform="translate(-14.96 -10.56)"/><g class="cls-2"><path class="cls-1" d="M328.67,63.24h0a.49.49,0,0,1,0-.11l0-.07,0-.08a4.56,4.56,0,0,0-1.79-2.2l-.22-.12h0L300.14,45.4,273.73,30.15h0l-.22-.13a2.19,2.19,0,0,0-2.18-.1l-.05,0-.06,0-3.48,2,2,.85-7,37a5.26,5.26,0,0,0,.38,3l0,.08a.25.25,0,0,0,0,.07,4.5,4.5,0,0,0,1.79,2.2l52.67,30.42-.48,2.32,3.3-1.91.05,0a2.68,2.68,0,0,0,1.31-2L329,66.09A5.12,5.12,0,0,0,328.67,63.24Z" transform="translate(-14.96 -10.56)"/><path class="cls-4" d="M314.84,107.87,261.58,77.11a5.56,5.56,0,0,1-2.18-5.57l7-37.33c.4-2.15,2-3.14,3.65-2.21l53.26,30.77a5.57,5.57,0,0,1,2.18,5.57l-7,37.33C318.08,107.81,316.45,108.8,314.84,107.87Z" transform="translate(-14.96 -10.56)"/><path class="cls-5" d="M323.13,62.64,296.72,47.39l-8.28,43.87,26.18,16.49a2.43,2.43,0,0,0,3.82-1.81l7.14-37.87A5.5,5.5,0,0,0,323.13,62.64Z" transform="translate(-14.96 -10.56)"/><path class="cls-6" d="M270.3,32.13l26.42,15.26L288.49,91,261.8,77.24a5.5,5.5,0,0,1-2.45-5.43l7.14-37.87A2.42,2.42,0,0,1,270.3,32.13Z" transform="translate(-14.96 -10.56)"/><path class="cls-7" d="M259.68,74.65a5.16,5.16,0,0,0,2.12,2.59l52.82,30.51a2.51,2.51,0,0,0,2.58.12l-23.67-43.6Z" transform="translate(-14.96 -10.56)"/><path class="cls-8" d="M325.24,65.22a5.21,5.21,0,0,0-2.11-2.58L270.3,32.13a2.49,2.49,0,0,0-2.57-.13l23.66,43.61Z" transform="translate(-14.96 -10.56)"/></g><path class="cls-1" d="M82,95.35h0c0-.09.08-.18.11-.27s.06-.13.08-.19l.09-.2a11.42,11.42,0,0,1,4.52-5.55l.55-.31h0L154,50.29l66.72-38.54h0l.55-.31a5.49,5.49,0,0,1,5.52-.25l.13.07.13.07,8.81,5.08-5.08,2.15L248.42,112a13.18,13.18,0,0,1-1,7.46,1.8,1.8,0,0,1-.08.21l-.08.18a11.43,11.43,0,0,1-4.52,5.55L109.7,202.24l1.23,5.86-8.34-4.83-.13-.07a6.84,6.84,0,0,1-3.31-5L81.1,102.54A13.19,13.19,0,0,1,82,95.35Z" transform="translate(-14.96 -10.56)"/><path class="cls-9" d="M116.89,208.1l134.54-77.71c4.07-2.35,6.54-8.66,5.52-14.08L239.16,22c-1-5.43-5.15-7.93-9.22-5.58L95.4,94.15c-4.07,2.35-6.54,8.65-5.51,14.08l17.78,94.29C108.7,208,112.82,210.45,116.89,208.1Z" transform="translate(-14.96 -10.56)"/><path class="cls-10" d="M96,93.83,162.67,55.3l20.91,110.84-66.14,41.64c-4.37,2.52-8.69.48-9.64-4.57l-18-95.66C88.81,102.5,91.58,96.36,96,93.83Z" transform="translate(-14.96 -10.56)"/><path class="cls-11" d="M229.39,16.76,162.67,55.3l20.78,110.15,67.43-34.74c4.38-2.53,7.15-8.67,6.2-13.72L239,21.33C238.08,16.28,233.76,14.24,229.39,16.76Z" transform="translate(-14.96 -10.56)"/><path class="cls-12" d="M256.23,124.18a13.12,13.12,0,0,1-5.35,6.53L117.44,207.78a6.34,6.34,0,0,1-6.51.32L170.72,98Z" transform="translate(-14.96 -10.56)"/><path class="cls-13" d="M90.61,100.36A13.16,13.16,0,0,1,96,93.83L229.39,16.76a6.36,6.36,0,0,1,6.52-.32L176.12,126.59Z" transform="translate(-14.96 -10.56)"/><rect class="cls-1" x="317.38" y="122.92" width="1.79" height="1.79" transform="translate(165.81 -199.35) rotate(45)"/><rect class="cls-1" x="321.95" y="122.91" width="1.79" height="1.79" transform="translate(167.14 -202.59) rotate(45)"/><rect class="cls-1" x="319.68" y="120.63" width="1.79" height="1.79" transform="translate(164.86 -201.64) rotate(45)"/><rect class="cls-1" x="319.66" y="125.2" width="1.79" height="1.79" transform="translate(168.09 -200.29) rotate(45)"/><rect class="cls-1" x="260.57" y="152.28" width="19" height="3.08"/><rect class="cls-1" x="283.94" y="152.28" width="19" height="3.08"/><path class="cls-1" d="M292.13,173.66H275.47v-4h16.66Zm-15.71-.95h14.76v-2.13H276.42Z" transform="translate(-14.96 -10.56)"/><rect class="cls-1" x="260.57" y="166.65" width="5.15" height="3.08"/></svg>