<?xml version="1.0" encoding="utf-8"?>
<!-- Generator: Adobe Illustrator 23.0.6, SVG Export Plug-In . SVG Version: 6.00 Build 0)  -->
<svg version="1.1" id="Capa_1" xmlns="http://www.w3.org/2000/svg" xmlns:xlink="http://www.w3.org/1999/xlink" x="0px" y="0px"
	 viewBox="0 0 2000 2000" style="enable-background:new 0 0 2000 2000;" xml:space="preserve">
<style type="text/css">
	.st0{fill:url(#SVGID_1_);}
	.st1{fill:#649234;}
	.st2{fill:url(#SVGID_2_);}
</style>
<title>tenis-ball</title>
<radialGradient id="SVGID_1_" cx="-679.4891" cy="1960.8484" r="1585.1208" gradientTransform="matrix(1 4.000000e-02 4.000000e-02 -1 2008.7999 2424.8101)" gradientUnits="userSpaceOnUse">
	<stop  offset="0" style="stop-color:#C8D141"/>
	<stop  offset="0.24" style="stop-color:#C4CF40"/>
	<stop  offset="0.5" style="stop-color:#B7C93E"/>
	<stop  offset="0.77" style="stop-color:#A2BE3B"/>
	<stop  offset="1" style="stop-color:#89B237"/>
</radialGradient>
<path class="st0" d="M1000.6,1916.4c-11.4,0-23-0.2-34.4-0.6c-244.6-9-471.1-112.8-637.6-292.2S75.2,1210.7,84.3,966.1
	C93.1,727.5,192.7,505,364.7,339.5c171.6-165,397-255.9,634.7-255.9c11.4,0,23,0.2,34.5,0.6c244.6,9,471.1,112.8,637.6,292.2
	s253.3,412.8,244.2,657.5c-8.8,238.6-108.5,461.1-280.5,626.6C1463.6,1825.5,1238.2,1916.4,1000.6,1916.4z"/>
<path class="st1" d="M999.4,106.8c11.2,0,22.3,0.2,33.6,0.6c493,18.2,877.8,432.6,859.6,925.6c-17.8,481.7-414,860.2-892,860.2
	c-11.2,0-22.3-0.2-33.6-0.6C474,1874.3,89.2,1459.9,107.4,967C125.2,485.3,521.4,106.8,999.4,106.8 M999.4,60.4L999.4,60.4
	c-243.6,0-474.8,93.2-650.8,262.4C172.2,492.5,70.1,720.6,61,965.3c-19.6,518.1,384.6,954,902.7,973.6c0.5,0,1,0,1.5,0.1
	c11.7,0.4,23.6,0.7,35.3,0.7c243.7,0,474.8-93.2,650.8-262.4c176.4-169.6,278.6-397.8,287.6-642.5c19.6-518.1-384.6-954-902.7-973.6
	c-0.5,0-1,0-1.5-0.1C1023,60.6,1011.1,60.4,999.4,60.4L999.4,60.4z"/>
<linearGradient id="SVGID_2_" gradientUnits="userSpaceOnUse" x1="-489.2635" y1="2539.6594" x2="752.7808" y2="2539.6594" gradientTransform="matrix(0.7071 -0.7071 -0.7071 -0.7071 2639.1501 2825.4688)">
	<stop  offset="0" style="stop-color:#E6E6E7"/>
	<stop  offset="1" style="stop-color:#FFFFFF"/>
</linearGradient>
<path class="st2" d="M1051.9,504.5c133.7,52.3,249.2,97.4,351.3,199.4c192.8,192.8,192.8,506.5,0,699.3s-506.5,192.8-699.3,0
	c-87.1-87.1-120.4-203.8-159-338.8c-49.5-173.5-105.5-369.2-286.7-562c-24.8,36.9-46.8,75.6-65.9,115.7
	c139.5,161,186,323.4,230.9,481c41.6,145.7,80.9,283.3,191.2,393.6c242.1,242.1,636.1,242.1,878.3,0s242.1-636.1,0-878.3
	c-120.8-120.8-253.9-172.8-394.7-227.8c-132.5-51.8-268.9-105.1-415.2-221.9c-43.5,16.6-85.6,36.5-126,59.6
	C736.2,381.1,903.4,446.4,1051.9,504.5z"/>
</svg>
